<svg id="Layer" enable-background="new 0 0 64 64" height="512" viewBox="0 0 64 64" width="512" xmlns="http://www.w3.org/2000/svg"><path d="m47 24h3c3.309 0 6-2.691 6-6 0-1.104-.896-2-2-2s-2 .896-2 2c0 1.103-.897 2-2 2h-3v-6c0-3.309-2.691-6-6-6h-18c-3.309 0-6 2.691-6 6v6h-3c-1.103 0-2-.897-2-2 0-1.104-.896-2-2-2s-2 .896-2 2c0 3.309 2.691 6 6 6h3v10c0 2.253.758 4.326 2.019 6h-.019c-6.065 0-11 4.935-11 11v3c0 1.104.896 2 2 2s2-.896 2-2v-3c0-3.86 3.141-7 7-7v10c0 1.104.896 2 2 2s2-.896 2-2v-10h4 3v2c0 1.104.896 2 2 2s2-.896 2-2v-2h3 4v10c0 1.104.896 2 2 2s2-.896 2-2v-10c3.859 0 7 3.14 7 7v3c0 1.104.896 2 2 2s2-.896 2-2v-3c0-6.065-4.935-11-11-11h-.019c1.261-1.674 2.019-3.747 2.019-6zm-13.176 4.257c-1.211-.186-2.438-.186-3.648 0l-9.176 1.412v-5.669h22v5.669zm-12.824-14.257c0-1.103.897-2 2-2h18c1.103 0 2 .897 2 2v6h-22zm0 20v-.284l9-1.384v7.668h-3c-3.309 0-6-2.691-6-6zm13 6v-7.669l9 1.385v.284c0 3.309-2.691 6-6 6z"/><path d="m34 54v-1c0-1.104-.896-2-2-2s-2 .896-2 2v1c0 1.104.896 2 2 2s2-.896 2-2z"/></svg>