<svg id="Layer" enable-background="new 0 0 64 64" height="512" viewBox="0 0 64 64" width="512" xmlns="http://www.w3.org/2000/svg"><path d="m52 8h-40c-2.206 0-4 1.794-4 4v30c0 2.206 1.794 4 4 4h7v4c0 3.309 2.691 6 6 6h14c3.309 0 6-2.691 6-6v-4h7c2.206 0 4-1.794 4-4v-30c0-2.206-1.794-4-4-4zm-11 42c0 1.103-.897 2-2 2h-14c-1.103 0-2-.897-2-2v-4h18zm-29-8v-30h40l.003 30z"/><path d="m48.715 20.971-3-5c-.361-.602-1.013-.971-1.715-.971h-6c-.702 0-1.354.369-1.715.971l-2.417 4.029h-3.736l-2.417-4.029c-.361-.602-1.013-.971-1.715-.971h-6c-.702 0-1.354.369-1.715.971l-3 5c-.38.633-.38 1.424 0 2.058l2.383 3.971-2.383 3.971c-.38.633-.38 1.424 0 2.058l3 5c.361.602 1.013.971 1.715.971h6c.702 0 1.354-.369 1.715-.971l2.417-4.029h3.736l2.417 4.029c.361.602 1.013.971 1.715.971h6c.702 0 1.354-.369 1.715-.971l3-5c.38-.633.38-1.424 0-2.058l-2.383-3.971 2.383-3.971c.38-.633.38-1.425 0-2.058zm-9.582-1.971h3.734l1.801 3-1.801 3h-3.734l-1.576-2.625-.225-.375zm-5.266 11h-3.734l-1.576-2.625-.225-.375.225-.375 1.576-2.625h3.734l1.576 2.625.225.375-.225.375zm-12.734-11h3.734l1.801 3-.225.375-1.576 2.625h-3.734l-1.801-3zm3.734 16h-3.734l-1.801-3 1.801-3h3.734l1.576 2.625.225.375zm18 0h-3.734l-1.801-3 .225-.375 1.576-2.625h3.734l1.801 3z"/></svg>