<svg id="Layer" enable-background="new 0 0 64 64" height="512" viewBox="0 0 64 64" width="512" xmlns="http://www.w3.org/2000/svg"><path d="m45 8c-4.262 0-8.117 2.497-9.922 6.252-1.007-.149-2.03-.252-3.078-.252s-2.071.103-3.078.252c-1.805-3.755-5.66-6.252-9.922-6.252-6.065 0-11 4.935-11 11 0 3.465 1.629 6.661 4.328 8.721-.844 2.272-1.328 4.717-1.328 7.279 0 11.579 9.42 21 21 21s21-9.421 21-21c0-2.562-.484-5.007-1.328-7.279 2.699-2.06 4.328-5.256 4.328-8.721 0-6.065-4.935-11-11-11zm-33 11c0-3.86 3.14-7 7-7 2.428 0 4.635 1.283 5.897 3.263-1.609.581-3.135 1.335-4.535 2.271l-.948-.948c-.78-.781-2.048-.781-2.828 0-.781.781-.781 2.047 0 2.828l.662.662c-1.193 1.18-2.23 2.511-3.116 3.946-1.344-1.299-2.132-3.097-2.132-5.022zm20 33c-9.374 0-17-7.626-17-17s7.626-17 17-17 17 7.626 17 17-7.626 17-17 17zm17.868-27.978c-.885-1.435-1.922-2.766-3.116-3.946l.662-.662c.781-.781.781-2.047 0-2.828-.78-.781-2.048-.781-2.828 0l-.948.948c-1.4-.936-2.926-1.69-4.535-2.271 1.262-1.98 3.469-3.263 5.897-3.263 3.86 0 7 3.14 7 7 0 1.925-.788 3.723-2.132 5.022z"/><path d="m42.535 27.707c-1.949-1.949-5.121-1.949-7.07 0l-.879.879c-.781.781-.781 2.047 0 2.828.78.781 2.048.781 2.828 0l.879-.879c.39-.39 1.024-.39 1.414 0l.879.879c.39.391.902.586 1.414.586s1.024-.195 1.414-.586c.781-.781.781-2.047 0-2.828z"/><path d="m24.293 30.535c.39-.39 1.024-.39 1.414 0l.879.879c.39.391.902.586 1.414.586s1.024-.195 1.414-.586c.781-.781.781-2.047 0-2.828l-.879-.879c-1.949-1.949-5.121-1.949-7.07 0l-.879.879c-.781.781-.781 2.047 0 2.828.78.781 2.048.781 2.828 0z"/><path d="m39 41c-1.104 0-2 .896-2 2 0 .552-.449 1-1 1h-1c-.551 0-1-.448-1-1v-3.172l1.414-1.414c.572-.572.743-1.432.434-2.18-.31-.747-1.039-1.234-1.848-1.234h-4c-.809 0-1.538.487-1.848 1.234-.31.748-.139 1.607.434 2.18l1.414 1.414v3.172c0 .552-.449 1-1 1h-1c-.551 0-1-.448-1-1 0-1.104-.896-2-2-2s-2 .896-2 2c0 2.757 2.243 5 5 5h1c1.13 0 2.162-.391 3-1.026.838.635 1.87 1.026 3 1.026h1c2.757 0 5-2.243 5-5 0-1.104-.896-2-2-2z"/></svg>