<svg id="Layer" enable-background="new 0 0 64 64" height="512" viewBox="0 0 64 64" width="512" xmlns="http://www.w3.org/2000/svg"><path d="m45 22.312v-1.312c0-7.168-5.832-13-13-13s-13 5.832-13 13v1.312l-9.244 9.244c-1.132 1.132-1.756 2.639-1.756 4.244s.624 3.112 1.756 4.244c1.17 1.17 2.707 1.755 4.244 1.755s3.074-.585 4.244-1.755l.942-.942c.813 4.969 4.442 8.995 9.199 10.376l1.718 5.154c.272.817 1.036 1.368 1.897 1.368s1.625-.551 1.897-1.368l1.718-5.154c4.756-1.381 8.385-5.407 9.199-10.376l.942.942c1.17 1.17 2.707 1.755 4.244 1.755s3.074-.585 4.244-1.755c1.132-1.132 1.756-2.639 1.756-4.244 0-1.604-.624-3.112-1.756-4.244zm-22 13.688v-3h18v3zm18-7h-18v-3h18zm-9-17c4.962 0 9 4.038 9 9v1h-18v-1c0-4.962 4.038-9 9-9zm-16.584 25.216c-.781.78-2.051.78-2.832 0-.376-.377-.584-.88-.584-1.416s.208-1.039.584-1.416l6.416-6.416v5.664zm16.584 8.784c-3.909 0-7.235-2.51-8.475-6h16.95c-1.24 3.49-4.566 6-8.475 6zm19.416-8.784c-.781.78-2.051.78-2.832 0l-3.584-3.584v-5.664l6.416 6.416c.376.377.584.88.584 1.416s-.208 1.039-.584 1.416z"/></svg>