<svg id="Layer" enable-background="new 0 0 64 64" height="512" viewBox="0 0 64 64" width="512" xmlns="http://www.w3.org/2000/svg"><path d="m14 16v30c0 2.206 1.794 4 4 4v4c0 1.104.896 2 2 2s2-.896 2-2v-4h20v4c0 1.104.896 2 2 2s2-.896 2-2v-4c2.206 0 4-1.794 4-4v-30c0-4.411-3.589-8-8-8h-20c-4.411 0-8 3.589-8 8zm32.002 20h-28.002v-10h28.001zm-28.002 10v-6h28.002l.001 6zm28-30 .001 6h-28.001v-6c0-2.206 1.794-4 4-4h20c2.206 0 4 1.794 4 4z"/><path d="m24 19h16c1.104 0 2-.896 2-2s-.896-2-2-2h-16c-1.104 0-2 .896-2 2s.896 2 2 2z"/><path d="m24 33h16c1.104 0 2-.896 2-2s-.896-2-2-2h-16c-1.104 0-2 .896-2 2s.896 2 2 2z"/></svg>