<svg id="Layer" enable-background="new 0 0 64 64" height="512" viewBox="0 0 64 64" width="512" xmlns="http://www.w3.org/2000/svg"><path d="m54 8h-6-32-6c-1.104 0-2 .896-2 2s.896 2 2 2h4v34c0 2.206 1.794 4 4 4v4c0 1.104.896 2 2 2s2-.896 2-2v-4h20v4c0 1.104.896 2 2 2s2-.896 2-2v-4c2.206 0 4-1.794 4-4v-34h4c1.104 0 2-.896 2-2s-.896-2-2-2zm-7.998 38h-28.002v-34h28z"/><path d="m26 35h12c1.104 0 2-.896 2-2v-8c0-1.104-.896-2-2-2h-12c-1.104 0-2 .896-2 2v8c0 1.104.896 2 2 2zm2-8h8v4h-8z"/><path d="m26 20h12c1.104 0 2-.896 2-2s-.896-2-2-2h-12c-1.104 0-2 .896-2 2s.896 2 2 2z"/></svg>