<svg id="Layer" enable-background="new 0 0 64 64" height="512" viewBox="0 0 64 64" width="512" xmlns="http://www.w3.org/2000/svg"><path d="m50.5 29h-.713c.135-.478.213-.979.213-1.5 0-2.937-2.317-5.337-5.217-5.486.138-.481.217-.988.217-1.514 0-2.273-1.387-4.228-3.358-5.065.228-.603.358-1.254.358-1.935 0-3.032-2.468-5.5-5.5-5.5h-9c-3.032 0-5.5 2.468-5.5 5.5 0 .681.13 1.332.358 1.935-1.971.837-3.358 2.792-3.358 5.065 0 .526.079 1.033.217 1.514-2.9.149-5.217 2.549-5.217 5.486 0 .521.078 1.022.213 1.5h-.713c-3.032 0-5.5 2.468-5.5 5.5s2.468 5.5 5.5 5.5h1.5v6c0 5.514 4.486 10 10 10h14c5.514 0 10-4.486 10-10v-6h1.5c3.032 0 5.5-2.468 5.5-5.5s-2.468-5.5-5.5-5.5zm-27.5-8.5c0-.827.673-1.5 1.5-1.5h3 9 3c.827 0 1.5.673 1.5 1.5s-.673 1.5-1.5 1.5h-15c-.827 0-1.5-.673-1.5-1.5zm4.5-8.5h9c.827 0 1.5.673 1.5 1.5s-.673 1.5-1.5 1.5h-9c-.827 0-1.5-.673-1.5-1.5s.673-1.5 1.5-1.5zm-9.5 15.5c0-.827.673-1.5 1.5-1.5h5 15 5c.827 0 1.5.673 1.5 1.5s-.673 1.5-1.5 1.5h-25c-.827 0-1.5-.673-1.5-1.5zm27 18.5c0 3.309-2.691 6-6 6h-14c-3.309 0-6-2.691-6-6v-6h26zm5.5-10h-3.5-30-3.5c-.827 0-1.5-.673-1.5-1.5s.673-1.5 1.5-1.5h6 25 6c.827 0 1.5.673 1.5 1.5s-.673 1.5-1.5 1.5z"/><path d="m29 48h6c1.104 0 2-.896 2-2s-.896-2-2-2h-6c-1.104 0-2 .896-2 2s.896 2 2 2z"/></svg>