<svg id="Layer" enable-background="new 0 0 64 64" height="512" viewBox="0 0 64 64" width="512" xmlns="http://www.w3.org/2000/svg"><path d="m50.5 38h-.733c.138-.484.233-.982.233-1.5 0-2.937-2.316-5.337-5.217-5.486.138-.481.217-.988.217-1.514 0-1.944-1.017-3.652-2.544-4.631.345-.718.544-1.52.544-2.369 0-3.032-2.467-5.5-5.5-5.5h-3.5v-5h12c1.104 0 2-.896 2-2s-.896-2-2-2h-28c-1.104 0-2 .896-2 2s.896 2 2 2h12v5h-3.5c-3.033 0-5.5 2.468-5.5 5.5 0 .849.199 1.651.544 2.369-1.527.979-2.544 2.687-2.544 4.631 0 .53.08 1.042.22 1.527-1.372.069-2.649.617-3.594 1.578-1.048 1.033-1.626 2.416-1.626 3.895 0 .521.077 1.022.213 1.5h-.713c-1.479 0-2.863.578-3.874 1.605-1.048 1.033-1.626 2.416-1.626 3.895 0 3.032 2.467 5.5 5.5 5.5h.713c-.136.478-.213.979-.213 1.5 0 3.032 2.467 5.5 5.5 5.5h25c3.033 0 5.5-2.468 5.5-5.5 0-.521-.077-1.022-.213-1.5h.713c1.479 0 2.863-.578 3.874-1.605 1.048-1.033 1.626-2.416 1.626-3.895 0-3.032-2.467-5.5-5.5-5.5zm-4.5-1.5c0 .398-.154.77-.456 1.067-.274.28-.645.433-1.044.433h-3.732c-.248-1.087-.687-2.101-1.29-3h.022 5c.827 0 1.5.673 1.5 1.5zm-23-7c0-.827.673-1.5 1.5-1.5h2 11 2c.827 0 1.5.673 1.5 1.5s-.673 1.5-1.5 1.5h-15c-.827 0-1.5-.673-1.5-1.5zm4 10.5c0-2.757 2.243-5 5-5s5 2.243 5 5-2.243 5-5 5-5-2.243-5-5zm-.5-19h11c.827 0 1.5.673 1.5 1.5s-.673 1.5-1.5 1.5h-11c-.827 0-1.5-.673-1.5-1.5s.673-1.5 1.5-1.5zm-8.5 15.5c0-.398.154-.77.456-1.067.274-.28.645-.433 1.044-.433h5 .022c-.603.899-1.042 1.913-1.29 3h-3.732c-.827 0-1.5-.673-1.5-1.5zm-6 7c0-.398.154-.77.456-1.067.274-.28.645-.433 1.044-.433h6 3.732c.248 1.087.687 2.101 1.29 3h-5.022-6c-.827 0-1.5-.673-1.5-1.5zm34 7c0 .827-.673 1.5-1.5 1.5h-25c-.827 0-1.5-.673-1.5-1.5s.673-1.5 1.5-1.5h25c.827 0 1.5.673 1.5 1.5zm5.544-5.933c-.274.28-.645.433-1.044.433h-6-5.022c.603-.899 1.042-1.913 1.29-3h3.732 6c.827 0 1.5.673 1.5 1.5 0 .398-.154.77-.456 1.067z"/></svg>