<svg id="Layer" enable-background="new 0 0 64 64" height="512" viewBox="0 0 64 64" width="512" xmlns="http://www.w3.org/2000/svg"><path d="m34 8h-4c-3.309 0-6 2.691-6 6v5.461c-4.053 1.277-7 5.07-7 9.539v23c0 2.206 1.794 4 4 4h22c2.206 0 4-1.794 4-4v-23c0-4.469-2.948-8.261-7-9.539v-5.461c0-3.309-2.691-6-6-6zm-6 6c0-1.103.897-2 2-2h4c1.103 0 2 .897 2 2v5h-8zm-7 38v-3h22v3zm22-23v16h-22v-16c0-3.309 2.691-6 6-6h10c3.309 0 6 2.691 6 6z"/><path d="m35 27h-6c-.703 0-1.354.368-1.715.971l-3 5c-.38.634-.38 1.425 0 2.059l3 5c.361.602 1.012.97 1.715.97h6c.702 0 1.354-.368 1.715-.971l3-5c.38-.634.38-1.425 0-2.059l-3-5c-.361-.602-1.013-.97-1.715-.97zm-1.133 10h-3.735l-1.8-3 1.8-3h3.735l1.801 3z"/></svg>