<svg id="Layer" enable-background="new 0 0 64 64" height="512" viewBox="0 0 64 64" width="512" xmlns="http://www.w3.org/2000/svg"><path d="m31.262 30.969-3.008 5c-.382.635-.382 1.428 0 2.063l3.008 5c.361.6 1.011.968 1.714.968h6.017c.702 0 1.353-.368 1.714-.969l3.008-5c.382-.635.382-1.428 0-2.063l-3.008-5c-.362-.6-1.013-.968-1.715-.968h-6.017c-.702 0-1.352.368-1.713.969zm6.599 3.031 1.805 3-1.805 3h-3.755l-1.805-3 1.805-3z"/><path d="m33.331 8.508c-.758-.678-1.904-.678-2.662 0-1.911 1.704-18.669 16.959-18.669 27.492 0 11.028 8.972 20 20 20s20-8.972 20-20c0-10.533-16.758-25.788-18.669-27.492zm-1.331 43.492c-8.822 0-16-7.178-16-16 0-6.804 10.541-18.141 16-23.284 5.459 5.14 16 16.472 16 23.284 0 8.822-7.178 16-16 16z"/></svg>