<svg id="Layer" enable-background="new 0 0 64 64" height="512" viewBox="0 0 64 64" width="512" xmlns="http://www.w3.org/2000/svg"><path d="m50 26h-3.512l2.486-2.486c2.333-2.333 2.335-6.139-.004-8.493-2.345-2.331-6.151-2.328-8.484.004l-2.486 2.487v-3.512c0-3.309-2.691-6-6-6s-6 2.691-6 6v3.512l-2.486-2.486c-2.332-2.333-6.138-2.334-8.493.004-2.331 2.345-2.329 6.151.004 8.484l2.487 2.486h-3.512c-3.309 0-6 2.691-6 6s2.691 6 6 6h3.512l-2.486 2.486c-2.333 2.332-2.335 6.139.004 8.491 1.172 1.165 2.708 1.748 4.244 1.748 1.537 0 3.073-.584 4.24-1.752l2.486-2.485v3.512c0 3.309 2.691 6 6 6s6-2.691 6-6v-3.512l2.485 2.486c1.167 1.167 2.701 1.751 4.238 1.751 1.538 0 3.078-.585 4.255-1.755 2.331-2.345 2.329-6.151-.004-8.483l-2.486-2.487h3.512c3.309 0 6-2.691 6-6s-2.691-6-6-6zm-18 14c-4.411 0-8-3.589-8-8s3.589-8 8-8 8 3.589 8 8-3.589 8-8 8zm11.314-22.146c.779-.777 2.051-.775 2.828-.004.781.786.783 2.058.004 2.836l-4.374 4.374c-.78-1.095-1.737-2.052-2.832-2.832zm-11.314-5.854c1.103 0 2 .897 2 2v6.181c-.652-.11-1.317-.181-2-.181s-1.348.071-2 .181v-6.181c0-1.103.897-2 2-2zm-14.15 5.858c.786-.779 2.058-.783 2.836-.004l4.374 4.374c-1.095.78-2.052 1.737-2.832 2.832l-4.374-4.374c-.778-.778-.776-2.051-.004-2.828zm-5.85 14.142c0-1.103.897-2 2-2h6.181c-.11.652-.181 1.317-.181 2s.071 1.348.181 2h-6.181c-1.103 0-2-.897-2-2zm8.686 14.146c-.778.778-2.05.776-2.827.004-.781-.785-.783-2.057-.004-2.835l4.374-4.374c.78 1.095 1.737 2.052 2.831 2.831zm11.314 5.854c-1.103 0-2-.897-2-2v-6.181c.652.11 1.317.181 2 .181s1.348-.071 2-.181v6.181c0 1.103-.897 2-2 2zm14.15-5.858c-.786.779-2.057.782-2.836.004l-4.374-4.374c1.095-.78 2.052-1.737 2.832-2.832l4.374 4.374c.778.779.776 2.05.004 2.828zm3.85-12.142h-6.181c.11-.652.181-1.317.181-2s-.071-1.348-.181-2h6.181c1.103 0 2 .897 2 2s-.897 2-2 2z"/></svg>