<svg id="Layer" enable-background="new 0 0 64 64" height="512" viewBox="0 0 64 64" width="512" xmlns="http://www.w3.org/2000/svg"><path d="m46 16.176c0-2.187-.85-4.239-2.394-5.782-1.543-1.544-3.595-2.394-5.782-2.394-2.186 0-4.239.85-5.782 2.394-.015.015-.027.032-.042.047-.015-.015-.027-.032-.042-.047-1.543-1.544-3.597-2.394-5.782-2.394-2.187 0-4.239.85-5.782 2.394-1.544 1.543-2.394 3.595-2.394 5.782 0 2.186.85 4.239 2.394 5.782.015.015.032.027.047.042-.015.015-.032.027-.047.042-1.544 1.543-2.394 3.597-2.394 5.782 0 2.187.85 4.239 2.394 5.782 1.543 1.544 3.595 2.394 5.782 2.394 1.356 0 2.66-.328 3.824-.945v6.522c-2.277-.723-5.14-.606-6.19-.528-.988.072-1.773.858-1.847 1.847-.108 1.449-.3 6.339 1.75 8.391.001 0 .001 0 .001.001 1.429 1.427 4.225 1.764 6.286 1.803v.909c0 1.104.896 2 2 2s2-.896 2-2v-.91c2.061-.039 4.857-.375 6.286-1.803 0-.001 0-.001.001-.001 2.05-2.052 1.858-6.941 1.75-8.391-.073-.988-.858-1.774-1.847-1.847-1.05-.077-3.913-.195-6.19.528v-6.522c1.164.618 2.468.946 3.824.946 2.187 0 4.239-.85 5.782-2.394 1.544-1.543 2.394-3.595 2.394-5.782 0-2.186-.85-4.239-2.394-5.782-.015-.015-.032-.027-.047-.042.015-.015.032-.027.047-.042 1.544-1.543 2.394-3.597 2.394-5.782zm-8.176-4.176c1.117 0 2.166.434 2.954 1.222s1.222 1.837 1.222 2.954-.434 2.166-1.222 2.954c-.271.271-.578.483-.906.668-.373-1.34-1.079-2.57-2.09-3.58-1.01-1.011-2.241-1.718-3.581-2.09.182-.324.395-.632.669-.906.788-.788 1.837-1.222 2.954-1.222zm-5.824 14.178c-1.116 0-2.165-.435-2.954-1.224s-1.224-1.838-1.224-2.954.435-2.165 1.224-2.954 1.838-1.224 2.954-1.224 2.165.435 2.954 1.224 1.224 1.838 1.224 2.954-.435 2.165-1.224 2.954-1.838 1.224-2.954 1.224zm-8.778-12.956c.788-.788 1.837-1.222 2.954-1.222s2.166.434 2.954 1.222c.271.271.483.578.668.906-1.34.373-2.57 1.079-3.58 2.09-1.011 1.01-1.718 2.241-2.09 3.581-.324-.182-.632-.395-.906-.669-.788-.788-1.222-1.837-1.222-2.954s.434-2.166 1.222-2.954zm2.954 18.778c-1.117 0-2.166-.434-2.954-1.222s-1.222-1.837-1.222-2.954.434-2.166 1.222-2.954c.271-.271.578-.483.906-.668.373 1.34 1.079 2.569 2.09 3.58s2.241 1.718 3.581 2.09c-.182.324-.395.632-.669.906-.788.788-1.837 1.222-2.954 1.222zm-.26 13.002c1.614.046 3.078.29 3.451.623.334.373.575 1.799.628 3.384-.001.026 0 .049-.001.075-1.608-.046-3.066-.29-3.452-.626-.337-.386-.58-1.847-.626-3.456zm12.168 0c-.046 1.609-.289 3.07-.626 3.456-.385.337-1.844.58-3.452.626 0-.025 0-.049-.001-.075.051-1.584.292-3.009.62-3.376.379-.339 1.844-.584 3.459-.631zm2.694-14.224c-.788.788-1.837 1.222-2.954 1.222s-2.166-.434-2.954-1.222c-.271-.271-.483-.578-.668-.906 1.34-.373 2.57-1.079 3.58-2.09 1.011-1.01 1.718-2.241 2.09-3.581.324.182.632.395.906.669.788.788 1.222 1.837 1.222 2.954s-.434 2.166-1.222 2.954z"/></svg>