<svg id="Layer" enable-background="new 0 0 64 64" height="512" viewBox="0 0 64 64" width="512" xmlns="http://www.w3.org/2000/svg"><path d="m36.715 25.971c-.361-.603-1.013-.971-1.715-.971h-6c-.702 0-1.354.368-1.715.971l-3 5c-.38.634-.38 1.425 0 2.059l3 5c.361.602 1.013.97 1.715.97h6c.702 0 1.354-.368 1.715-.971l3-5c.38-.634.38-1.425 0-2.059zm-2.848 9.029h-3.734l-1.801-3 1.801-3h3.734l1.801 3z"/><path d="m52.685 19.752c-.013-.105-.034-.206-.062-.305-.543-2.456-1.247-4.885-2.114-7.268l-1.041-2.862c-.288-.791-1.039-1.317-1.88-1.317h-31.176c-.841 0-1.592.526-1.88 1.316l-1.041 2.862c-.867 2.383-1.571 4.812-2.114 7.268-.029.099-.049.2-.062.305-1.739 8.067-1.739 16.429 0 24.496.013.105.034.206.062.305.543 2.456 1.247 4.885 2.114 7.268l1.041 2.862c.288.792 1.039 1.318 1.88 1.318h9.992c.002 0 .004.001.006.001.004 0 .008-.001.011-.001h11.157c.004 0 .008.001.011.001.002 0 .004-.001.006-.001h9.992c.841 0 1.592-.526 1.88-1.316l1.041-2.862c.867-2.383 1.571-4.812 2.114-7.268.029-.099.049-.2.062-.305 1.74-8.068 1.74-16.43.001-24.497zm-16.496 32.248h-8.377l-.561-1.544c-.523-1.439-.971-2.938-1.381-4.456h12.263c-.411 1.518-.858 3.017-1.381 4.456zm-21.242-10c-1.242-6.606-1.242-13.394 0-20h34.105c1.242 6.606 1.242 13.394 0 20zm12.864-30h8.377l.561 1.544c.523 1.439.971 2.938 1.381 4.456h-12.261c.411-1.518.858-3.017 1.381-4.456zm18.938 1.546c.534 1.468 1 2.954 1.402 4.454h-5.866c-.501-1.992-1.094-3.946-1.776-5.823l-.064-.177h5.742zm-29.498 0 .561-1.546h5.742l-.064.177c-.682 1.877-1.275 3.831-1.776 5.823h-5.866c.403-1.5.869-2.986 1.403-4.454zm0 36.908c-.534-1.468-1-2.954-1.402-4.454h5.866c.501 1.992 1.094 3.946 1.776 5.823l.064.177h-5.742zm29.498 0-.562 1.546h-5.742l.064-.177c.682-1.877 1.275-3.831 1.776-5.823h5.866c-.402 1.5-.868 2.986-1.402 4.454z"/></svg>