<svg id="Layer" enable-background="new 0 0 64 64" height="512" viewBox="0 0 64 64" width="512" xmlns="http://www.w3.org/2000/svg"><path d="m55.41 17.582c-2.525-3.889-12.603-5.055-17.692-5.398-.772-2.423-3.042-4.184-5.718-4.184s-4.946 1.761-5.718 4.184c-5.089.342-15.167 1.509-17.692 5.398-.364.362-.59.864-.59 1.418v25c0 6.617 5.383 12 12 12h24c6.617 0 12-5.383 12-12v-25c0-.554-.226-1.056-.59-1.418zm-3.41 16.772c-.321.42-1.884 1.453-6.042 2.356l-2.244-3.739c-.36-.603-1.012-.971-1.714-.971h-6c-.702 0-1.354.368-1.715.971l-3 5c-.004.006-.005.014-.009.021-11.353-.094-18.366-2.322-19.276-3.636v-10.33c6.351 2.86 18.214 2.974 20 2.974 1.785 0 13.649-.114 20-2.974zm-16.668 4.646 1.801-3h3.734l1.801 3-1.801 3h-3.734zm-3.332-27c1.103 0 2 .897 2 2s-.897 2-2 2-2-.897-2-2 .897-2 2-2zm-5.583 4.183c.875 2.231 3.045 3.817 5.583 3.817s4.708-1.586 5.583-3.817c8.546.57 13.272 2.301 14.297 3.319-1.328 1.355-8.51 3.498-19.88 3.498s-18.552-2.143-19.879-3.498c1.024-1.018 5.75-2.75 14.296-3.319zm17.583 35.817h-24c-4.411 0-8-3.589-8-8v-4.974c6.351 2.86 18.214 2.974 20 2.974.158 0 .308-.005.464-.006l1.821 3.035c.361.603 1.013.971 1.715.971h6c.702 0 1.354-.368 1.715-.971l2.582-4.303c2.322-.474 4.222-1.039 5.703-1.698v4.972c0 4.411-3.589 8-8 8z"/></svg>