<svg id="Layer" enable-background="new 0 0 64 64" height="512" viewBox="0 0 64 64" width="512" xmlns="http://www.w3.org/2000/svg"><path d="m55.863 25.288c-.533-3.702-2.754-6.859-5.863-8.664v-2.624c0-3.309-2.691-6-6-6h-24c-3.309 0-6 2.691-6 6v2.624c-3.11 1.805-5.331 4.962-5.863 8.664-.065.407-.067.613-.103 1.046-.013.222-.034.441-.034.666v15c0 7.72 6.28 14 14 14h20c7.72 0 14-6.28 14-14v-15c0-.225.013-.425 0-.647.002-.187-.043-.446-.137-1.065zm-37.863-10.288v-1c0-1.103.897-2 2-2h24c1.103 0 2 .897 2 2v1h-2-24zm24 37h-20c-5.514 0-10-4.486-10-10v-14h7c1.104 0 2-.896 2-2s-.896-2-2-2h-6.411c1.19-2.928 4.061-5 7.411-5h24c3.35 0 6.221 2.072 7.411 5h-23.411c-1.104 0-2 .896-2 2s.896 2 2 2h24v14c0 5.514-4.486 10-10 10z"/><path d="m36.715 33.971c-.361-.602-1.013-.971-1.715-.971h-6c-.703 0-1.354.369-1.715.971l-3 5c-.38.633-.38 1.424 0 2.058l3 5c.361.602 1.012.971 1.715.971h6c.702 0 1.354-.369 1.715-.971l3-5c.38-.633.38-1.424 0-2.058zm-2.848 9.029h-3.735l-1.8-3 1.8-3h3.735l1.801 3z"/></svg>