<svg id="Layer" enable-background="new 0 0 64 64" height="512" viewBox="0 0 64 64" width="512" xmlns="http://www.w3.org/2000/svg"><path d="m50 16.082v-2.082c0-3.309-2.691-6-6-6h-24c-3.309 0-6 2.691-6 6v2.082c-2.387 1.386-4 3.964-4 6.918v25c0 4.411 3.589 8 8 8h28c4.411 0 8-3.589 8-8v-25c0-2.953-1.613-5.532-4-6.918zm-36 28.918v-19h36v19zm.142-23c.447-1.72 1.999-3 3.858-3h28c1.859 0 3.411 1.28 3.858 3zm3.858-8c0-1.103.897-2 2-2h24c1.103 0 2 .897 2 2v1h-28zm28 38h-28c-1.859 0-3.411-1.279-3.858-3h35.716c-.447 1.721-1.999 3-3.858 3z"/><path d="m38.748 34.528-2.5-4.5c-.352-.634-1.021-1.028-1.748-1.028h-5c-.727 0-1.396.394-1.748 1.029l-2.5 4.5c-.336.604-.336 1.339 0 1.943l2.5 4.5c.352.634 1.021 1.028 1.748 1.028h5c.727 0 1.396-.394 1.748-1.028l2.5-4.5c.336-.605.336-1.339 0-1.944zm-5.425 3.472h-2.646l-1.389-2.5 1.389-2.5h2.646l1.389 2.5z"/></svg>