<svg id="Layer" enable-background="new 0 0 64 64" height="512" viewBox="0 0 64 64" width="512" xmlns="http://www.w3.org/2000/svg"><path d="m50 11h-29c-3.309 0-6 2.691-6 6v3h-1c-3.309 0-6 2.691-6 6v9.1c0 3.161 1.869 6.03 4.761 7.31.034.015.068.029.104.042l3.743 1.412c1.038 2.415 2.563 4.64 4.454 6.474 1.769 1.717 4.182 2.662 6.794 2.662h15.751c2.892 0 5.607-1.21 7.448-3.318 3.189-3.655 4.945-8.513 4.945-13.682v-19c0-3.309-2.691-6-6-6zm-38 24.1v-9.1c0-1.103.897-2 2-2h1v12c0 1.038.094 2.063.25 3.077l-.917-.346c-1.419-.65-2.333-2.069-2.333-3.631zm40 .9c0 4.201-1.406 8.126-3.958 11.051-1.082 1.239-2.698 1.949-4.435 1.949h-15.751c-1.543 0-3.004-.559-4.008-1.533-1.693-1.642-3.022-3.671-3.844-5.865-.666-1.789-1.004-3.674-1.004-5.602v-19c0-1.103.897-2 2-2h18v3h-1c-.703 0-1.354.368-1.715.971l-3 5c-.38.634-.38 1.425 0 2.059l3 5c.361.602 1.012.97 1.715.97h6c.703 0 1.354-.368 1.715-.971l3-5c.38-.634.38-1.425 0-2.059l-3-5c-.361-.602-1.012-.97-1.715-.97h-1v-3h7c1.103 0 2 .897 2 2zm-12.868-14h3.735l1.8 3-1.8 3h-3.735l-1.8-3z"/></svg>