<svg id="Layer" enable-background="new 0 0 64 64" height="512" viewBox="0 0 64 64" width="512" xmlns="http://www.w3.org/2000/svg"><path d="m54.278 23.712c-1.077-.746-2.452-.919-3.646-.471l-2.632.931v-2.172c0-5.514-4.486-10-10-10h-4v-2c0-1.104-.896-2-2-2s-2 .896-2 2v2h-4c-5.514 0-10 4.486-10 10v2h-2c-3.309 0-6 2.691-6 6v11c0 3.309 2.691 6 6 6h2v1c0 4.411 3.589 8 8 8h16c4.411 0 8-3.589 8-8v-8.614l2.809-1.053c3.105-1.164 5.191-4.175 5.191-7.491v-3.842c0-1.312-.644-2.541-1.722-3.288zm-28.278-7.712h12c2.607 0 4.824 1.673 5.65 4h-23.3c.826-2.327 3.043-4 5.65-4zm-12 27c-1.103 0-2-.897-2-2v-11c0-1.103.897-2 2-2h2v15zm30 5c0 2.206-1.794 4-4 4h-16c-2.206 0-4-1.794-4-4v-24h10v3h-1c-.702 0-1.354.369-1.715.971l-3 5c-.38.633-.38 1.424 0 2.058l3 5c.361.603 1.013.971 1.715.971h6c.702 0 1.354-.368 1.715-.971l3-5c.38-.634.38-1.425 0-2.058l-3-5c-.361-.602-1.013-.971-1.715-.971h-1v-3h10zm-13.867-17h3.734l1.801 3-1.801 3h-3.734l-1.801-3zm21.867-.158c0 1.658-1.043 3.163-2.596 3.745l-1.404.527v-6.699l4-1.415z"/></svg>