<svg id="Layer" enable-background="new 0 0 64 64" height="512" viewBox="0 0 64 64" width="512" xmlns="http://www.w3.org/2000/svg"><path d="m50 8h-36c-3.309 0-6 2.691-6 6v2c0 2.607 1.673 4.824 4 5.65v26.35c0 4.411 3.589 8 8 8h11.998c1.001 0 1.929-.495 2.484-1.325.561-.84.663-1.901.274-2.84-.502-1.21-.756-2.501-.756-3.835 0-.548.048-1.109.143-1.673.595-3.578 3.092-6.548 6.535-7.755 2.275-.82 4.903-.752 7.157.184.94.39 2 .286 2.84-.274.83-.555 1.325-1.483 1.325-2.484v-14.348c2.327-.826 4-3.043 4-5.65v-2c0-3.309-2.691-6-6-6zm-19.414 36h-2.586c-1.103 0-2-.897-2-2v-18c0-1.103.897-2 2-2h8c1.103 0 2 .897 2 2v11.36c-3.594 1.697-6.291 4.843-7.414 8.64zm21.414-28c0 1.103-.897 2-2 2-1.104 0-2 .896-2 2v14.576c-1.926-.571-4.003-.703-6-.419v-10.157c0-3.309-2.691-6-6-6h-8c-3.309 0-6 2.691-6 6v18c0 3.309 2.691 6 6 6h2c0 1.371.193 2.711.576 4h-10.576c-2.206 0-4-1.794-4-4v-28c0-1.104-.896-2-2-2-1.103 0-2-.897-2-2v-2c0-1.103.897-2 2-2h36c1.103 0 2 .897 2 2z"/></svg>