<svg id="Layer" enable-background="new 0 0 64 64" height="512" viewBox="0 0 64 64" width="512" xmlns="http://www.w3.org/2000/svg"><path d="m10.336 47.842c.839 4.727 4.975 8.158 9.835 8.158h23.658c4.86 0 8.996-3.431 9.835-8.158.223-1.259.336-2.552.336-3.842 0-2.451-.406-4.843-1.196-7.137.261-.306.475-.66.615-1.063.463-1.337.043-2.765-1.069-3.64l-10.35-8.132v-5.053c2.799-.254 5-2.611 5-5.475 0-3.033-2.468-5.5-5.5-5.5h-19c-3.032 0-5.5 2.467-5.5 5.5 0 2.864 2.201 5.221 5 5.475v5.053l-5.073 3.986c-.007.005-.014.009-.021.014l-.061.05-5.196 4.083c-1.111.874-1.531 2.302-1.068 3.639.139.403.354.757.615 1.063-.79 2.294-1.196 4.686-1.196 7.137 0 1.29.113 2.583.336 3.842zm39.389-.698c-.498 2.814-2.978 4.856-5.896 4.856h-23.658c-2.918 0-5.397-2.042-5.896-4.856-.182-1.03-.275-2.087-.275-3.144 0-2.064.366-4.073 1.05-6h5.95c1.104 0 2-.896 2-2s-.896-2-2-2h-5.217l3.56-2.797h.001l.002-.002 5.346-4.201h11.308v7h-5c-1.104 0-2 .896-2 2s.896 2 2 2h5v3c0 1.104.896 2 2 2s2-.896 2-2v-3h7 1.95c.684 1.927 1.05 3.936 1.05 6 0 1.057-.093 2.114-.275 3.144zm-11.725-28.144v4h-12v-4zm9 15h-7v-6.457l4.658 3.66c.01.008.018.018.028.025l.05.036 3.481 2.736zm-26-20.5c0-.827.673-1.5 1.5-1.5h19c.827 0 1.5.673 1.5 1.5s-.673 1.5-1.5 1.5h-19c-.827 0-1.5-.673-1.5-1.5z"/></svg>