<svg id="Layer" enable-background="new 0 0 64 64" height="512" viewBox="0 0 64 64" width="512" xmlns="http://www.w3.org/2000/svg"><path d="m56 16c0-3.309-2.691-6-6-6h-36c-1.607 0-3.115.631-4.224 1.756-1.145 1.129-1.776 2.637-1.776 4.244 0 1.762.768 3.344 1.982 4.443-1.078 2.475-1.713 5.079-1.909 7.771 0 .009-.003.017-.003.026v.004c-.042.582-.07 1.166-.07 1.756 0 13.234 10.766 24 24 24s24-10.766 24-24c0-.59-.028-1.175-.07-1.758 0-.001 0-.001 0-.002 0-.009-.003-.017-.003-.026-.196-2.695-.833-5.3-1.912-7.778.07-.064.142-.124.209-.192 1.145-1.129 1.776-2.637 1.776-4.244zm-43.396-1.416c.372-.376.868-.584 1.396-.584h36c1.103 0 2 .897 2 2 0 .528-.208 1.024-.604 1.416-.372.376-.868.584-1.396.584h-10.5-8-17.5c-1.103 0-2-.897-2-2 0-.528.208-1.024.604-1.416zm29.396 9.916v6c0 1.378-1.122 2.5-2.5 2.5s-2.5-1.122-2.5-2.5v-1.5c0-1.104-.896-2-2-2h-3.5c-1.378 0-2.5-1.122-2.5-2.5s1.122-2.5 2.5-2.5h8c1.378 0 2.5 1.122 2.5 2.5zm-10 25.5c-11.028 0-20-8.972-20-20 0-2.789.56-5.474 1.666-8h.334 11.502c-.323.77-.502 1.614-.502 2.5 0 3.584 2.916 6.5 6.5 6.5h1.519c.256 3.352 3.065 6 6.481 6 3.584 0 6.5-2.916 6.5-6.5v-6c0-.886-.179-1.73-.501-2.5h4.501.334c1.106 2.526 1.666 5.211 1.666 8 0 11.028-8.972 20-20 20z"/></svg>