<svg id="Layer" enable-background="new 0 0 64 64" height="512" viewBox="0 0 64 64" width="512" xmlns="http://www.w3.org/2000/svg"><path d="m44.343 9.757c-1.133-1.133-2.64-1.757-4.242-1.757s-3.109.624-4.242 1.757c-1.091 1.09-1.651 2.501-1.725 3.932-1.431.074-2.842.635-3.932 1.726-1.09 1.09-1.651 2.501-1.725 3.932-1.431.074-2.842.635-3.932 1.725-2.339 2.339-2.339 6.146 0 8.485l.706.706-15.496 15.493c-1.131 1.133-1.755 2.64-1.755 4.244s.624 3.111 1.756 4.244c1.132 1.132 2.64 1.756 4.244 1.756s3.112-.624 4.244-1.756l15.494-15.494.706.706c1.17 1.169 2.706 1.754 4.242 1.754 1.537 0 3.073-.584 4.243-1.754 1.06-1.06 1.668-2.448 1.743-3.934 1.425-.078 2.828-.637 3.914-1.723s1.645-2.49 1.723-3.914c1.486-.075 2.874-.682 3.933-1.742 1.134-1.134 1.758-2.641 1.758-4.244s-.624-3.109-1.758-4.242zm-28.927 41.659c-.754.753-2.079.752-2.832 0-.376-.377-.584-.88-.584-1.416s.208-1.039.584-1.416l15.494-15.494 2.832 2.832zm24.685-14.789c-.778.779-2.049.781-2.829 0l-2.098-2.098c-.007-.007-.012-.016-.019-.023s-.016-.012-.023-.019l-5.619-5.619c-.007-.007-.011-.015-.018-.022s-.015-.011-.022-.018l-2.1-2.1c-.78-.78-.78-2.049 0-2.829.39-.39.902-.584 1.414-.584s1.024.195 1.415.584l9.899 9.9c.378.377.586.88.586 1.414s-.208 1.037-.586 1.414zm5.657-5.657c-.779.779-2.05.781-2.829 0l-9.899-9.899c-.78-.78-.78-2.049 0-2.829.39-.39.902-.585 1.415-.585.512 0 1.024.195 1.414.585l9.899 9.899c.779.781.779 2.05 0 2.829zm5.656-5.656c-.756.755-2.072.755-2.828 0l-9.899-9.899c-.779-.78-.779-2.049 0-2.829.377-.378.879-.586 1.414-.586s1.036.208 1.414.585l9.899 9.9c.378.378.586.881.586 1.414 0 .535-.208 1.037-.586 1.415z"/><path d="m47.553 39.619c-1.303 1.365-5.553 6.075-5.553 9.381 0 3.86 3.141 7 7 7s7-3.14 7-7c0-3.306-4.25-8.016-5.553-9.381-.756-.791-2.138-.791-2.894 0zm1.447 12.381c-1.654 0-3-1.346-3-3 0-.888 1.396-3.034 3.001-4.982 1.603 1.946 2.999 4.091 2.999 4.982 0 1.654-1.346 3-3 3z"/></svg>