<svg id="Layer" enable-background="new 0 0 64 64" height="512" viewBox="0 0 64 64" width="512" xmlns="http://www.w3.org/2000/svg"><path d="m50 24h-2c-1.104 0-2 .896-2 2s.896 2 2 2h2c1.103 0 2 .897 2 2v2h-16.273l-.917-.918 20.571-19.636c.799-.763.829-2.028.066-2.827-.763-.8-2.028-.83-2.828-.065l-20.638 19.7-1.952-1.952c-1.036-1.036-2.417-1.606-3.889-1.606s-2.853.57-3.889 1.606c-.917.917-1.443 2.108-1.558 3.389-1.238.112-2.446.615-3.391 1.561-.233.233-.429.488-.611.749h-4.691v-2c0-1.103.897-2 2-2h2c1.104 0 2-.896 2-2s-.896-2-2-2h-2c-3.309 0-6 2.691-6 6v10c0 8.822 7.178 16 16 16h16c8.822 0 16-7.178 16-16v-10.001c0-3.309-2.691-6-6-6zm-24.92 5.13c.561-.561 1.56-.561 2.121 0l6.364 6.365c.28.28.435.656.435 1.06s-.155.779-.436 1.061c-.561.561-1.56.561-2.121 0l-6.364-6.365c-.28-.28-.435-.656-.435-1.06s.155-.78.436-1.061zm-2.829 4.949 6.364 6.364c.585.585.585 1.537 0 2.121-.585.587-1.538.586-2.123 0l-6.363-6.363c-.585-.585-.585-1.537 0-2.122.586-.584 1.538-.584 2.122 0zm17.749 17.921h-16c-6.617 0-12-5.383-12-12v-4h3.776c.174 1.109.673 2.176 1.526 3.029l6.364 6.364v.001c1.072 1.071 2.48 1.606 3.888 1.606s2.817-.536 3.889-1.607c.945-.945 1.449-2.154 1.561-3.391 1.281-.115 2.473-.642 3.389-1.559 1.036-1.036 1.607-2.417 1.607-3.888 0-.189-.035-.37-.054-.555h14.054v4c0 6.617-5.383 12-12 12z"/></svg>