<svg id="Layer" enable-background="new 0 0 64 64" height="512" viewBox="0 0 64 64" width="512" xmlns="http://www.w3.org/2000/svg"><path d="m18.734 46.191c.743 1.133 1.994 1.809 3.348 1.809h5.618c1.653 4.653 6.087 8 11.3 8 6.617 0 12-5.383 12-12 0-1.622-.66-3.449-1.642-5.283l5.57-7.393c.023-.031.045-.063.066-.094 1.294-1.941 1.34-4.477.087-6.509l-9.818-14.921c-.742-1.127-1.992-1.8-3.341-1.8h-19.84c-1.354 0-2.605.676-3.348 1.81l-9.846 15.05c-1.196 1.938-1.196 4.344.028 6.326zm20.266 5.809c-4.411 0-8-3.589-8-8 0-2.985 4.46-8.553 8-12.188 2.14 2.195 4.609 5.095 6.233 7.707.02.036.043.069.065.103 1.027 1.67 1.702 3.218 1.702 4.378 0 4.411-3.589 8-8 8zm-26.736-24.995 9.818-15.005h19.84l9.786 14.869c.396.643.389 1.462-.016 2.102l-4.628 6.143c-2.764-3.788-6.074-6.983-6.688-7.565-.771-.731-1.98-.731-2.752 0-1.087 1.03-10.624 10.247-10.624 16.451h-4.918l-9.79-14.961c-.39-.631-.39-1.447-.028-2.034z"/><path d="m21.971 23.715c.322.193.677.285 1.027.285.68 0 1.342-.347 1.717-.972l2.417-4.028h3.868c1.104 0 2-.896 2-2s-.896-2-2-2h-5c-.703 0-1.354.369-1.715.971l-3 5c-.568.947-.261 2.175.686 2.744z"/></svg>