<svg id="Layer" enable-background="new 0 0 64 64" height="512" viewBox="0 0 64 64" width="512" xmlns="http://www.w3.org/2000/svg"><path d="m9.265 40.328 4.2 7.333c.356.622 1.019 1.006 1.735 1.006h7.241l3.624 6.328c.355.621 1.018 1.005 1.735 1.005h8.4c.717 0 1.379-.384 1.735-1.006l3.624-6.328h7.241c.717 0 1.379-.384 1.735-1.006l4.2-7.333c.353-.616.353-1.373 0-1.988l-3.63-6.339 3.631-6.339c.353-.616.353-1.373 0-1.988l-4.2-7.333c-.356-.622-1.019-1.006-1.735-1.006h-7.241l-3.624-6.328c-.356-.622-1.019-1.006-1.736-1.006h-8.4c-.717 0-1.379.384-1.735 1.006l-3.624 6.328h-7.241c-.717 0-1.379.384-1.735 1.006l-4.2 7.333c-.353.616-.353 1.373 0 1.988l3.63 6.339-3.631 6.339c-.352.616-.352 1.373.001 1.989zm4.04-.995 3.054-5.333h6.082l3.054 5.333-3.054 5.333h-6.081zm15.654-12.666h6.082l3.054 5.333-3.054 5.333h-6.082l-3.054-5.333zm6.082 25.333h-6.082l-3.054-5.333 3.054-5.333h6.082l3.054 5.333zm12.6-7.333h-6.081l-3.054-5.333 3.053-5.334h6.082l3.055 5.333zm3.054-20-3.054 5.333h-6.082l-3.054-5.333 3.054-5.333h6.081zm-21.736-12.667h6.082l3.054 5.333-3.054 5.333h-6.082l-3.054-5.333zm-12.6 7.333h6.081l3.054 5.333-3.053 5.334h-6.082l-3.055-5.333z"/></svg>